<svg xmlns="http://www.w3.org/2000/svg" viewBox="0 0 64 64" width="256" height="256"><defs><linearGradient id="core-wallet-gear-grad" x1="0" y1="0" x2="64" y2="64" gradientUnits="userSpaceOnUse"><stop offset="0" stop-color="#4F46E5"/><stop offset="1" stop-color="#7C3AED"/></linearGradient></defs><rect x="19" y="8" width="26" height="16" rx="3" fill="#22D3EE"/><rect x="8" y="18" width="48" height="36" rx="8" fill="url(#core-wallet-gear-grad)"/><circle cx="50" cy="50" r="13" fill="#FFFFFF"/><polygon points="57.2,50 57.09,51.24 59.69,52.49 58.61,55.09 55.89,54.14 55.09,55.09 54.14,55.89 55.09,58.61 52.49,59.69 51.24,57.09 50,57.2 48.76,57.09 47.51,59.69 44.91,58.61 45.86,55.89 44.91,55.09 44.11,54.14 41.39,55.09 40.31,52.49 42.91,51.24 42.8,50 42.91,48.76 40.31,47.51 41.39,44.91 44.11,45.86 44.91,44.91 45.86,44.11 44.91,41.39 47.51,40.31 48.76,42.91 50,42.8 51.24,42.91 52.49,40.31 55.09,41.39 54.14,44.11 55.09,44.91 55.89,45.86 58.61,44.91 59.69,47.51 57.09,48.76" fill="#22D3EE"/><circle cx="50" cy="50" r="3.2" fill="url(#core-wallet-gear-grad)"/></svg>