<svg xmlns="http://www.w3.org/2000/svg" viewBox="0 0 64 64" width="64" height="64"><defs><linearGradient id="intel-constellation-grad" x1="0" y1="0" x2="64" y2="64" gradientUnits="userSpaceOnUse"><stop offset="0" stop-color="#7C3AED"/><stop offset="1" stop-color="#C026D3"/></linearGradient><clipPath id="intel-constellation-clip"><rect width="64" height="64" rx="14"/></clipPath></defs><g clip-path="url(#intel-constellation-clip)"><rect width="64" height="64" rx="14" fill="url(#intel-constellation-grad)"/><polygon points="18,11 19.76,15.57 24.66,15.84 20.85,18.93 22.11,23.66 18,21 13.89,23.66 15.15,18.93 11.34,15.84 16.24,15.57" fill="#FFFFFF"/><polygon points="48,10 49.53,13.9 53.71,14.15 50.47,16.8 51.53,20.85 48,18.6 44.47,20.85 45.53,16.8 42.29,14.15 46.47,13.9" fill="#FFFFFF"/><polygon points="14,40 15.53,43.9 19.71,44.15 16.47,46.8 17.53,50.85 14,48.6 10.47,50.85 11.53,46.8 8.29,44.15 12.47,43.9" fill="#FFFFFF"/><polygon points="50,41 51.76,45.57 56.66,45.84 52.85,48.93 54.11,53.66 50,51 45.89,53.66 47.15,48.93 43.34,45.84 48.24,45.57" fill="#FFFFFF"/><polygon points="32,22 34.47,28.6 41.51,28.91 35.99,33.3 37.88,40.09 32,36.2 26.12,40.09 28.01,33.3 22.49,28.91 29.53,28.6" fill="#F472B6"/><line x1="18" y1="18" x2="32" y2="32" fill="none" stroke="#FFFFFF" stroke-width="2" stroke-linecap="round" stroke-linejoin="round"/><line x1="48" y1="16" x2="32" y2="32" fill="none" stroke="#FFFFFF" stroke-width="2" stroke-linecap="round" stroke-linejoin="round"/><line x1="14" y1="46" x2="32" y2="32" fill="none" stroke="#FFFFFF" stroke-width="2" stroke-linecap="round" stroke-linejoin="round"/><line x1="50" y1="48" x2="32" y2="32" fill="none" stroke="#FFFFFF" stroke-width="2" stroke-linecap="round" stroke-linejoin="round"/></g></svg>